<svg width="100" height="100" viewBox="0 0 100 100" fill="none" xmlns="http://www.w3.org/2000/svg">
<path d="M27.7778 87.5C23.3333 87.5 18.8889 83.125 16.6667 81.25C5.55556 72.5 2.22222 69.375 0 67.5V93.75C0 97.2012 2.48785 100 5.55556 100H50C53.0677 100 55.5556 97.2012 55.5556 93.75V67.5C53.3333 69.375 50 72.5 38.8889 81.25C36.6667 83.125 32.2222 87.5 27.7778 87.5ZM50 50H5.55556C2.48785 50 0 52.7988 0 56.25V59.375C4.44444 63.125 3.88889 63.125 20 76.25C21.6667 77.5 25 81.25 27.7778 81.25C30.5556 81.25 33.8889 77.5 35.5556 76.875C51.6667 63.75 51.1111 63.75 55.5556 60V56.25C55.5556 52.7988 53.0677 50 50 50ZM94.4444 31.25H38.8889C35.8212 31.25 33.3333 34.0488 33.3333 37.5V43.75H50C55.7656 43.75 60.5191 48.7148 61.0608 55.043L61.1111 55V81.25H94.4444C97.5121 81.25 100 78.4512 100 75V37.5C100 34.0488 97.5121 31.25 94.4444 31.25ZM88.8889 56.25H77.7778V43.75H88.8889V56.25ZM27.7778 37.5C27.7778 30.6074 32.7622 25 38.8889 25H77.7778V6.25C77.7778 2.79883 75.2899 0 72.2222 0H16.6667C13.599 0 11.1111 2.79883 11.1111 6.25V43.75H27.7778V37.5Z" fill="#BCC1DD"/>
</svg>
