<svg width="100" height="100" viewBox="0 0 100 100" fill="none" xmlns="http://www.w3.org/2000/svg">
<path d="M55.2632 100V92.4623C59.0226 91.9598 62.6775 90.9757 66.2281 89.51C69.7786 88.0444 73.0994 86.0971 76.1905 83.6683L81.3283 89.196C77.4854 92.3785 73.3918 94.8492 69.0476 96.608C64.7034 98.3668 60.1086 99.4975 55.2632 100V100ZM88.9724 81.407L83.584 76.2563C85.8396 73.2412 87.7193 69.9958 89.2231 66.5201C90.7268 63.0444 91.7711 59.2965 92.3559 55.2764H100C99.3317 60.3015 98.0576 65.0126 96.1779 69.4095C94.2982 73.8065 91.8964 77.8057 88.9724 81.407ZM92.3559 44.7236C91.7711 40.7035 90.7268 36.9765 89.2231 33.5427C87.7193 30.1089 85.8396 26.8425 83.584 23.7437L88.9724 18.593C92.147 22.7806 94.5698 26.9263 96.2406 31.0301C97.9114 35.134 99.1646 39.6985 100 44.7236H92.3559ZM44.6115 100C31.9131 98.5762 21.3033 93.1114 12.782 83.6055C4.26065 74.0997 0 62.8978 0 50C0 37.1022 4.26065 25.9003 12.782 16.3945C21.3033 6.88861 31.9131 1.42379 44.6115 0V7.53769C34.0017 8.96147 25.1671 13.7144 18.1078 21.7965C11.0485 29.8786 7.5188 39.2797 7.5188 50C7.5188 60.7203 11.0485 70.1214 18.1078 78.2035C25.1671 86.2856 34.0017 91.0385 44.6115 92.4623V100ZM76.3158 16.3317C73.0576 14.0704 69.6533 12.2069 66.1028 10.7412C62.5522 9.27554 59.0226 8.2077 55.5138 7.53769V0C60.0251 0.670017 64.4946 1.88442 68.9223 3.64322C73.35 5.40201 77.4854 7.78894 81.3283 10.804L76.3158 16.3317ZM50 76.5075C42.8989 70.4774 37.6358 64.8869 34.2105 59.7362C30.7853 54.5854 29.0727 49.8325 29.0727 45.4774C29.0727 38.861 31.1821 33.6055 35.401 29.7111C39.6199 25.8166 44.4862 23.8693 50 23.8693C55.5138 23.8693 60.3801 25.8166 64.599 29.7111C68.8179 33.6055 70.9273 38.861 70.9273 45.4774C70.9273 49.8325 69.2147 54.5854 65.7895 59.7362C62.3642 64.8869 57.1011 70.4774 50 76.5075ZM50 50.2513C51.5873 50.2513 52.924 49.7069 54.01 48.6181C55.0961 47.5293 55.6391 46.1893 55.6391 44.598C55.6391 43.1742 55.0961 41.876 54.01 40.7035C52.924 39.531 51.5873 38.9447 50 38.9447C48.4127 38.9447 47.076 39.531 45.99 40.7035C44.9039 41.876 44.3609 43.1742 44.3609 44.598C44.3609 46.1893 44.9039 47.5293 45.99 48.6181C47.076 49.7069 48.4127 50.2513 50 50.2513Z" fill="#BCC1DD"/>
</svg>
