<svg width="1057" height="950" viewBox="0 0 1057 950" fill="none" xmlns="http://www.w3.org/2000/svg">
<circle cx="514" cy="471" r="400" fill="#EFF1FD"/>
<path d="M305.262 233H158.738C153.77 233.005 149.007 234.828 145.494 238.069C141.982 241.31 140.006 245.703 140 250.286V324.237C140.006 328.82 141.982 333.214 145.494 336.454C149.007 339.695 153.77 341.518 158.738 341.523H305.262C310.23 341.518 314.993 339.695 318.506 336.454C322.018 333.214 323.994 328.82 324 324.237V250.286C323.994 245.703 322.018 241.31 318.506 238.069C314.993 234.828 310.23 233.005 305.262 233V233Z" fill="#8E57FB"/>
<path d="M305.262 237.977H158.738C155.201 237.98 151.809 239.278 149.307 241.586C146.806 243.894 145.399 247.023 145.395 250.287V324.237C145.399 327.501 146.806 330.63 149.307 332.937C151.809 335.245 155.201 336.543 158.738 336.547H305.262C308.8 336.543 312.192 335.245 314.693 332.937C317.195 330.63 318.602 327.501 318.606 324.237V250.287C318.602 247.023 317.195 243.894 314.693 241.586C312.192 239.278 308.8 237.98 305.262 237.977Z" fill="#8E57FB"/>
<path d="M294.115 367.096L262.821 338.227L299.765 339.373V364.937C299.772 365.543 299.581 366.136 299.216 366.639C298.851 367.142 298.331 367.532 297.722 367.758C297.314 367.915 296.876 367.997 296.434 367.998C296.002 367.997 295.575 367.917 295.177 367.762C294.779 367.607 294.418 367.381 294.115 367.096V367.096Z" fill="#8E57FB"/>
<path d="M199.683 296.6C205.274 296.6 209.806 292.419 209.806 287.261C209.806 282.103 205.274 277.922 199.683 277.922C194.092 277.922 189.56 282.103 189.56 287.261C189.56 292.419 194.092 296.6 199.683 296.6Z" fill="white"/>
<path d="M231.999 296.6C237.59 296.6 242.123 292.419 242.123 287.261C242.123 282.103 237.59 277.922 231.999 277.922C226.408 277.922 221.876 282.103 221.876 287.261C221.876 292.419 226.408 296.6 231.999 296.6Z" fill="white"/>
<path d="M264.317 296.6C269.908 296.6 274.44 292.419 274.44 287.261C274.44 282.103 269.908 277.922 264.317 277.922C258.726 277.922 254.193 282.103 254.193 287.261C254.193 292.419 258.726 296.6 264.317 296.6Z" fill="white"/>
<path d="M680.755 458.078H320.244C314.612 458.085 309.212 460.451 305.229 464.657C301.247 468.863 299.006 474.566 299 480.515V717.562C299.006 723.51 301.247 729.213 305.229 733.419C309.212 737.625 314.612 739.991 320.244 739.998H680.755C686.388 739.992 691.788 737.626 695.77 733.419C699.753 729.213 701.994 723.51 702 717.562V480.515C701.994 474.566 699.753 468.863 695.771 464.657C691.788 460.451 686.388 458.085 680.755 458.078Z" fill="#716FF8"/>
<path d="M680.755 458.078H320.244C314.612 458.085 309.212 460.451 305.229 464.657C301.247 468.863 299.006 474.566 299 480.515V717.562C299.006 723.51 301.247 729.213 305.229 733.419C309.212 737.625 314.612 739.991 320.244 739.998H680.755C686.388 739.992 691.788 737.626 695.77 733.419C699.753 729.213 701.994 723.51 702 717.562V480.515C701.994 474.566 699.753 468.863 695.771 464.657C691.788 460.451 686.388 458.085 680.755 458.078ZM687.727 628.352C687.641 652.485 678.602 675.621 662.55 692.796C646.498 709.972 624.712 719.819 601.864 720.225C565.284 720.728 622.104 720.924 577.985 720.924C477.1 720.924 371.905 719.906 332.656 719.246C327.492 719.134 322.574 716.894 318.953 713.004C315.331 709.115 313.293 703.884 313.273 698.429V480.532C313.275 478.579 314.009 476.706 315.315 475.323C316.622 473.94 318.393 473.16 320.243 473.153H680.741C682.59 473.155 684.363 473.93 685.673 475.31C686.982 476.689 687.721 478.56 687.727 480.513V628.352Z" fill="#9896F8"/>
<path d="M636.376 321.578H361.705C359.275 321.582 356.905 322.378 354.919 323.857C352.933 325.336 351.427 327.426 350.608 329.843L308.187 455.536C307.554 457.412 307.356 459.421 307.611 461.395C307.866 463.368 308.566 465.248 309.651 466.876C310.737 468.505 312.177 469.834 313.85 470.753C315.524 471.672 317.381 472.153 319.267 472.155L687.647 472.846H687.663C689.613 472.846 691.532 472.335 693.248 471.359C694.965 470.382 696.425 468.972 697.498 467.253C698.571 465.534 699.224 463.561 699.397 461.51C699.571 459.459 699.259 457.395 698.492 455.503L697.849 455.793L698.492 455.503L647.205 329.119C646.298 326.88 644.788 324.971 642.863 323.631C640.938 322.29 638.682 321.576 636.376 321.578V321.578Z" fill="#514BB6"/>
<path d="M699.445 458.235C699.444 459.921 699.12 461.588 698.491 463.138L647.208 560.424C646.295 562.658 644.783 564.562 642.859 565.9C640.934 567.239 638.681 567.954 636.377 567.957H361.709C359.278 567.954 356.907 567.16 354.919 565.681C352.932 564.203 351.424 562.113 350.603 559.697L308.19 463.104C307.67 461.565 307.442 459.933 307.52 458.301C307.597 456.67 307.979 455.07 308.642 453.594C309.306 452.118 310.238 450.794 311.386 449.699C312.534 448.604 313.875 447.758 315.333 447.21C316.593 446.73 317.924 446.484 319.264 446.483L364.263 446.393L382.63 446.36L624.306 445.912L642.683 445.879L687.65 445.789H687.66C690.786 445.79 693.783 447.101 695.993 449.435C698.203 451.769 699.445 454.934 699.445 458.235V458.235Z" fill="#514BB6"/>
<path d="M347.27 635.891C352.717 635.891 427.512 640.718 427.512 646.47C427.512 652.223 352.717 656.721 347.27 656.721C344.655 656.721 342.146 655.624 340.297 653.671C338.447 651.718 337.408 649.068 337.408 646.306C337.408 643.544 338.447 640.895 340.297 638.941C342.146 636.988 344.655 635.891 347.27 635.891V635.891Z" fill="#9896F8"/>
<path d="M619.272 245.113H387.675C381.468 245.121 375.517 247.728 371.129 252.363C366.74 256.998 364.271 263.283 364.264 269.838V567.954H636.377C638.611 567.961 640.801 567.289 642.683 566.018V269.838C642.676 263.283 640.207 256.998 635.818 252.363C631.429 247.728 625.479 245.121 619.272 245.113Z" fill="#C7CAE4"/>
<path d="M530.873 265.16H403.952C398.3 265.166 392.881 267.539 388.884 271.758C384.887 275.978 382.637 281.7 382.629 287.669V567.955H624.305V363.835C624.276 337.674 614.424 312.593 596.908 294.095C579.392 275.596 555.644 265.19 530.873 265.16V265.16Z" fill="white"/>
<path d="M583.133 543.062H423.803C422.426 543.062 421.105 543.64 420.131 544.669C419.157 545.697 418.61 547.092 418.61 548.547C418.61 550.001 419.157 551.396 420.131 552.425C421.105 553.453 422.426 554.031 423.803 554.031H583.133C584.51 554.031 585.831 553.453 586.805 552.425C587.779 551.396 588.326 550.001 588.326 548.547C588.326 547.092 587.779 545.697 586.805 544.669C585.831 543.64 584.51 543.062 583.133 543.062V543.062Z" fill="#E4E4E4"/>
<path d="M583.134 521.371H423.804C422.425 521.371 421.103 521.95 420.128 522.979C419.153 524.009 418.605 525.405 418.605 526.861C418.605 528.317 419.153 529.714 420.128 530.743C421.103 531.773 422.425 532.351 423.804 532.351H583.134C584.512 532.351 585.834 531.773 586.809 530.743C587.784 529.714 588.332 528.317 588.332 526.861C588.332 525.405 587.784 524.009 586.809 522.979C585.834 521.95 584.512 521.371 583.134 521.371V521.371Z" fill="#E4E4E4"/>
<path d="M492.87 499.691H423.803C422.426 499.691 421.105 500.269 420.131 501.298C419.157 502.326 418.61 503.721 418.61 505.176C418.61 506.63 419.157 508.025 420.131 509.054C421.105 510.082 422.426 510.66 423.803 510.66H492.87C494.248 510.66 495.568 510.082 496.542 509.054C497.516 508.025 498.063 506.63 498.063 505.176C498.063 503.721 497.516 502.326 496.542 501.298C495.568 500.269 494.248 499.691 492.87 499.691V499.691Z" fill="#E4E4E4"/>
<path d="M583.134 454.27H423.804C422.425 454.27 421.103 454.848 420.128 455.878C419.153 456.907 418.605 458.303 418.605 459.76C418.605 461.216 419.153 462.612 420.128 463.642C421.103 464.671 422.425 465.25 423.804 465.25H583.134C584.512 465.25 585.834 464.671 586.809 463.642C587.784 462.612 588.332 461.216 588.332 459.76C588.332 458.303 587.784 456.907 586.809 455.878C585.834 454.848 584.512 454.27 583.134 454.27Z" fill="#E4E4E4"/>
<path d="M583.133 432.594H423.803C422.426 432.594 421.105 433.172 420.131 434.2C419.157 435.229 418.61 436.624 418.61 438.078C418.61 439.533 419.157 440.928 420.131 441.956C421.105 442.985 422.426 443.563 423.803 443.563H583.133C584.51 443.563 585.831 442.985 586.805 441.956C587.779 440.928 588.326 439.533 588.326 438.078C588.326 436.624 587.779 435.229 586.805 434.2C585.831 433.172 584.51 432.594 583.133 432.594V432.594Z" fill="#E4E4E4"/>
<path d="M492.871 410.902H423.804C422.425 410.902 421.103 411.481 420.128 412.51C419.153 413.54 418.605 414.936 418.605 416.392C418.605 417.848 419.153 419.245 420.128 420.274C421.103 421.304 422.425 421.882 423.804 421.882H492.871C494.249 421.882 495.572 421.304 496.546 420.274C497.521 419.245 498.069 417.848 498.069 416.392C498.069 414.936 497.521 413.54 496.546 412.51C495.572 411.481 494.249 410.902 492.871 410.902Z" fill="#E4E4E4"/>
<path d="M583.134 365.477H423.804C422.425 365.477 421.103 366.055 420.128 367.085C419.153 368.114 418.605 369.511 418.605 370.967C418.605 372.423 419.153 373.819 420.128 374.849C421.103 375.878 422.425 376.457 423.804 376.457H583.134C584.512 376.457 585.834 375.878 586.809 374.849C587.784 373.819 588.332 372.423 588.332 370.967C588.332 369.511 587.784 368.114 586.809 367.085C585.834 366.055 584.512 365.477 583.134 365.477Z" fill="#9896F7"/>
<path d="M583.134 343.801H423.804C422.425 343.801 421.103 344.379 420.128 345.409C419.153 346.438 418.605 347.835 418.605 349.291C418.605 350.747 419.153 352.143 420.128 353.173C421.103 354.202 422.425 354.781 423.804 354.781H583.134C584.512 354.781 585.834 354.202 586.809 353.173C587.784 352.143 588.332 350.747 588.332 349.291C588.332 347.835 587.784 346.438 586.809 345.409C585.834 344.379 584.512 343.801 583.134 343.801Z" fill="#9896F7"/>
<path d="M492.871 322.105H423.804C422.425 322.105 421.103 322.684 420.128 323.713C419.153 324.743 418.605 326.139 418.605 327.595C418.605 329.051 419.153 330.448 420.128 331.477C421.103 332.507 422.425 333.085 423.804 333.085H492.871C494.249 333.085 495.572 332.507 496.546 331.477C497.521 330.448 498.069 329.051 498.069 327.595C498.069 326.139 497.521 324.743 496.546 323.713C495.572 322.684 494.249 322.105 492.871 322.105Z" fill="#9896F7"/>
<path d="M634 287.429C656.337 287.429 674.444 268.305 674.444 244.714C674.444 221.124 656.337 202 634 202C611.662 202 593.555 221.124 593.555 244.714C593.555 268.305 611.662 287.429 634 287.429Z" fill="#9896F7"/>
<path d="M628.483 266.947C627.785 266.947 627.096 266.775 626.471 266.445C625.847 266.115 625.303 265.636 624.884 265.046L613.85 249.508C613.494 249.009 613.234 248.441 613.086 247.836C612.938 247.23 612.905 246.6 612.988 245.981C613.071 245.362 613.268 244.767 613.57 244.229C613.871 243.691 614.27 243.221 614.743 242.846C615.216 242.471 615.755 242.198 616.329 242.044C616.902 241.889 617.499 241.855 618.085 241.944C618.67 242.034 619.234 242.244 619.742 242.564C620.251 242.883 620.695 243.306 621.049 243.807L628.268 253.971L646.808 224.6C647.47 223.552 648.499 222.824 649.669 222.577C650.839 222.33 652.054 222.583 653.047 223.282C654.04 223.981 654.729 225.068 654.963 226.304C655.197 227.54 654.957 228.823 654.295 229.871L632.227 264.831C631.828 265.463 631.291 265.985 630.661 266.353C630.032 266.721 629.328 266.924 628.608 266.945C628.567 266.946 628.525 266.947 628.483 266.947Z" fill="white"/>
<g filter="url(#filter0_d_104_224)">
<path d="M236.994 574.72L264.023 583.767C252.866 572.631 243.178 555.166 237.948 541.245C229.441 554.34 215.679 570.394 201.998 580.036L230.42 574.426C213.471 637.273 147.908 682.899 72.3385 683.617L72.3839 688.39C151.318 687.639 219.7 640.102 236.994 574.72V574.72Z" fill="#FFA6DE"/>
</g>
<path d="M935.094 264.337L926.156 245.831L907.062 237.169L926.156 228.506L935.094 210L944.031 228.506L963.125 237.169L944.031 245.831L935.094 264.337ZM952.156 321.234L946.062 308.831L933.266 302.925L946.062 297.019L952.156 284.616L958.25 297.019L971.047 302.925L958.25 308.831L952.156 321.234ZM845.922 367.5L843.891 349.388C841.995 349.125 840.031 348.534 838 347.616C835.969 346.697 834.208 345.581 832.719 344.269L816.875 350.766L799 322.416L814.437 312.572C813.76 310.341 813.422 308.372 813.422 306.666C813.422 304.959 813.76 302.991 814.437 300.759L799 290.916L816.875 262.566L832.719 269.062C834.208 267.75 835.969 266.634 838 265.716C840.031 264.797 841.995 264.206 843.891 263.944L845.922 245.831H880.047L882.078 263.944C883.974 264.206 885.937 264.797 887.969 265.716C890 266.634 891.76 267.75 893.25 269.062L909.094 262.566L926.969 290.916L911.531 300.759C912.208 302.991 912.547 304.959 912.547 306.666C912.547 308.372 912.208 310.341 911.531 312.572L926.969 322.416L909.094 350.766L893.25 344.269C891.76 345.581 890 346.697 887.969 347.616C885.937 348.534 883.974 349.125 882.078 349.388L880.047 367.5H845.922ZM862.984 329.306C869.755 329.306 875.341 327.173 879.742 322.908C884.143 318.642 886.344 313.228 886.344 306.666C886.344 300.103 884.143 294.689 879.742 290.423C875.341 286.158 869.755 284.025 862.984 284.025C856.214 284.025 850.628 286.158 846.227 290.423C841.826 294.689 839.625 300.103 839.625 306.666C839.625 313.228 841.826 318.642 846.227 322.908C850.628 327.173 856.214 329.306 862.984 329.306ZM862.984 317.494C859.734 317.494 857.06 316.477 854.961 314.442C852.862 312.408 851.812 309.816 851.812 306.666C851.812 303.516 852.862 300.923 854.961 298.889C857.06 296.855 859.734 295.837 862.984 295.837C866.234 295.837 868.909 296.855 871.008 298.889C873.107 300.923 874.156 303.516 874.156 306.666C874.156 309.816 873.107 312.408 871.008 314.442C868.909 316.477 866.234 317.494 862.984 317.494ZM856.078 355.688H869.891L871.516 340.725C875.443 339.806 879.031 338.494 882.281 336.788C885.531 335.081 888.51 332.85 891.219 330.094L904.422 335.803L911.125 325.566L898.531 316.903C900.021 313.622 900.766 310.209 900.766 306.666C900.766 303.122 900.021 299.709 898.531 296.428L911.125 287.766L904.422 277.528L891.219 283.238C888.51 280.481 885.531 278.25 882.281 276.544C879.031 274.837 875.443 273.525 871.516 272.606L869.891 257.644H856.078L854.453 272.606C850.526 273.525 846.937 274.837 843.687 276.544C840.437 278.25 837.458 280.481 834.75 283.238L821.547 277.528L814.844 287.766L827.437 296.428C825.948 299.709 825.203 303.122 825.203 306.666C825.203 310.209 825.948 313.622 827.437 316.903L814.844 325.566L821.547 335.803L834.75 330.094C837.458 332.85 840.437 335.081 843.687 336.788C846.937 338.494 850.526 339.806 854.453 340.725L856.078 355.688Z" fill="#726CF8"/>
<ellipse cx="508" cy="70.5" rx="71" ry="70.5" fill="#5FCAFD"/>
<path d="M472.5 95.175V89.8875H479.955V62.9213C479.955 58.1038 481.419 53.7416 484.348 49.8347C487.277 45.9278 491.138 43.475 495.93 42.4763V39.9206C495.93 38.5694 496.418 37.4531 497.394 36.5719C498.371 35.6906 499.539 35.25 500.9 35.25C502.261 35.25 503.429 35.6906 504.406 36.5719C505.382 37.4531 505.87 38.5694 505.87 39.9206V42.4763C507.349 42.77 508.843 43.2841 510.352 44.0184C511.861 44.7528 513.177 45.6194 514.301 46.6181L512.393 48.5128L510.485 50.4075C509.183 49.35 507.689 48.5569 506.003 48.0281C504.317 47.4994 502.616 47.235 500.9 47.235C496.462 47.235 492.75 48.7478 489.762 51.7734C486.774 54.7991 485.28 58.515 485.28 62.9213V89.8875H516.609V76.845H521.934V89.8875H529.3V95.175H472.5ZM500.9 105.75C498.947 105.75 497.276 105.06 495.886 103.679C494.495 102.298 493.8 100.639 493.8 98.7H508C508 100.639 507.305 102.298 505.914 103.679C504.524 105.06 502.852 105.75 500.9 105.75ZM526.637 74.025V62.5688H515.1V57.2813H526.637V45.825H531.962V57.2813H543.5V62.5688H531.962V74.025H526.637Z" fill="white"/>
<circle cx="222" cy="836" r="25" stroke="#5FCAFD" stroke-width="20"/>
<circle cx="879" cy="106" r="25" stroke="#FFA6DE" stroke-width="20"/>
<circle cx="27.5" cy="550.5" r="20" stroke="#726CF8" stroke-width="15"/>
<circle cx="1032" cy="611" r="25" fill="#9896F8"/>
<circle cx="702" cy="925" r="25" fill="#FE55BF"/>
<circle cx="1032" cy="197" r="25" fill="#FE55BF"/>
<path d="M854 801C900.944 801 939 762.944 939 716C939 669.056 900.944 631 854 631C807.056 631 769 669.056 769 716C769 762.944 807.056 801 854 801Z" fill="#8E57FB"/>
<path d="M904.93 709.18H894.364C892.72 699.493 887.647 690.72 880.071 684.463C862.637 670.063 836.83 672.522 822.43 689.957C822.381 690.012 822.334 690.07 822.289 690.128C821.138 691.62 821.414 693.762 822.906 694.912C824.397 696.063 826.539 695.787 827.69 694.295C833.945 686.716 843.413 681.894 854 681.894C870.209 681.895 884.179 693.3 887.426 709.18H878.108C877.709 709.18 877.323 709.32 877.017 709.575C876.293 710.178 876.195 711.253 876.798 711.977L890.209 728.076C890.275 728.155 890.348 728.227 890.427 728.293C891.15 728.896 892.226 728.799 892.829 728.076L906.24 711.977C906.495 711.67 906.635 711.284 906.635 710.886C906.635 709.944 905.872 709.18 904.93 709.18V709.18V709.18Z" fill="white"/>
<path d="M885.095 737.089C883.603 735.938 881.461 736.215 880.311 737.706C875.349 743.714 868.48 747.842 860.846 749.405C842.385 753.185 824.354 741.283 820.574 722.821H829.892C830.834 722.821 831.597 722.057 831.597 721.115C831.597 720.717 831.457 720.331 831.202 720.025L817.791 703.926C817.188 703.202 816.112 703.105 815.389 703.708C815.31 703.774 815.237 703.847 815.171 703.926L801.76 720.025C801.158 720.748 801.256 721.824 801.979 722.426C802.286 722.682 802.671 722.821 803.07 722.821H813.637C815.281 732.509 820.353 741.282 827.929 747.539C845.363 761.939 871.17 759.479 885.57 742.045C885.619 741.989 885.666 741.932 885.711 741.873C886.862 740.382 886.586 738.24 885.095 737.089H885.095V737.089Z" fill="white"/>
<defs>
<filter id="filter0_d_104_224" x="68.3389" y="541.246" width="199.684" height="155.145" filterUnits="userSpaceOnUse" color-interpolation-filters="sRGB">
<feFlood flood-opacity="0" result="BackgroundImageFix"/>
<feColorMatrix in="SourceAlpha" type="matrix" values="0 0 0 0 0 0 0 0 0 0 0 0 0 0 0 0 0 0 127 0" result="hardAlpha"/>
<feOffset dy="4"/>
<feGaussianBlur stdDeviation="2"/>
<feComposite in2="hardAlpha" operator="out"/>
<feColorMatrix type="matrix" values="0 0 0 0 0 0 0 0 0 0 0 0 0 0 0 0 0 0 0.25 0"/>
<feBlend mode="normal" in2="BackgroundImageFix" result="effect1_dropShadow_104_224"/>
<feBlend mode="normal" in="SourceGraphic" in2="effect1_dropShadow_104_224" result="shape"/>
</filter>
</defs>
</svg>
