<svg width="200" height="200" viewBox="0 0 200 200" fill="none" xmlns="http://www.w3.org/2000/svg">
<circle cx="100" cy="100" r="100" fill="#C58EF9"/>
<path d="M100.011 74.3613C85.8226 74.3613 74.3781 85.8083 74.3781 100C74.3781 114.192 85.8226 125.639 100.011 125.639C114.2 125.639 125.644 114.192 125.644 100C125.644 85.8083 114.2 74.3613 100.011 74.3613ZM100.011 116.669C90.8422 116.669 83.3463 109.193 83.3463 100C83.3463 90.8067 90.8199 83.3315 100.011 83.3315C109.202 83.3315 116.676 90.8067 116.676 100C116.676 109.193 109.18 116.669 100.011 116.669V116.669ZM132.672 73.3125C132.672 76.6373 129.994 79.2927 126.693 79.2927C123.369 79.2927 120.714 76.615 120.714 73.3125C120.714 70.01 123.391 67.3324 126.693 67.3324C129.994 67.3324 132.672 70.01 132.672 73.3125ZM149.649 79.3819C149.269 71.3712 147.44 64.2754 141.573 58.4291C135.728 52.5828 128.634 50.7531 120.625 50.3514C112.37 49.8829 87.6297 49.8829 79.3754 50.3514C71.3887 50.7308 64.2945 52.5605 58.4272 58.4068C52.56 64.253 50.7529 71.3489 50.3514 79.3596C49.8829 87.6158 49.8829 112.362 50.3514 120.618C50.7306 128.629 52.56 135.725 58.4272 141.571C64.2945 147.417 71.3664 149.247 79.3754 149.649C87.6297 150.117 112.37 150.117 120.625 149.649C128.634 149.269 135.728 147.439 141.573 141.571C147.418 135.725 149.247 128.629 149.649 120.618C150.117 112.362 150.117 87.6381 149.649 79.3819V79.3819ZM138.985 129.477C137.245 133.85 133.876 137.22 129.481 138.982C122.9 141.593 107.284 140.991 100.011 140.991C92.7384 140.991 77.0998 141.571 70.541 138.982C66.1684 137.242 62.7998 133.873 61.0374 129.477C58.4272 122.894 59.0296 107.274 59.0296 100C59.0296 92.7257 58.4495 77.0836 61.0374 70.5233C62.7775 66.1497 66.1461 62.7803 70.541 61.0175C77.1221 58.4068 92.7384 59.0093 100.011 59.0093C107.284 59.0093 122.922 58.4291 129.481 61.0175C133.854 62.758 137.223 66.1274 138.985 70.5233C141.595 77.1059 140.993 92.7257 140.993 100C140.993 107.274 141.595 122.916 138.985 129.477Z" fill="white"/>
</svg>
