<svg width="100" height="100" viewBox="0 0 100 100" fill="none" xmlns="http://www.w3.org/2000/svg">
<path d="M93.75 100C82.4537 100 71.2268 97.2222 60.0694 91.6667C48.912 86.1111 38.8889 78.8889 30 70C21.1111 61.1111 13.8889 51.088 8.33333 39.9306C2.77778 28.7731 0 17.5463 0 6.25C0 4.49074 0.601852 3.00926 1.80556 1.80556C3.00926 0.601852 4.49074 0 6.25 0H25.6944C26.9907 0 28.125 0.439815 29.0972 1.31944C30.0694 2.19907 30.6944 3.37963 30.9722 4.86111L34.7222 22.3611C34.9074 23.6574 34.8843 24.838 34.6528 25.9028C34.4213 26.9676 33.9352 27.8704 33.1944 28.6111L19.3056 42.6389C24.4907 51.25 30.3009 58.75 36.7361 65.1389C43.1713 71.5278 50.463 76.9444 58.6111 81.3889L71.8056 67.7778C72.7315 66.7593 73.7963 66.0417 75 65.625C76.2037 65.2083 77.4074 65.1389 78.6111 65.4167L95.1389 69.0278C96.5278 69.3056 97.6852 70 98.6111 71.1111C99.537 72.2222 100 73.5185 100 75V93.75C100 95.5093 99.3981 96.9907 98.1944 98.1944C96.9907 99.3981 95.5093 100 93.75 100ZM15.1389 35L26.3889 23.6111L23.1944 8.33333H8.33333C8.33333 11.9444 8.88889 15.9028 10 20.2083C11.1111 24.5139 12.8241 29.4444 15.1389 35ZM66.3889 85.4167C70.1852 87.1759 74.3055 88.6111 78.75 89.7222C83.1944 90.8333 87.5 91.4815 91.6667 91.6667V76.8056L77.3611 73.8889L66.3889 85.4167Z" fill="#BCC1DD"/>
</svg>
