<svg width="200" height="200" viewBox="0 0 200 200" fill="none" xmlns="http://www.w3.org/2000/svg">
<circle cx="100" cy="100" r="100" fill="#45CBF7"/>
<path d="M139.721 74.9218C139.785 76.0155 139.785 77.1094 139.785 78.2031C139.785 111.562 119.163 150 81.4722 150C69.8604 150 59.0737 145.859 50 138.672C51.6498 138.906 53.236 138.984 54.9492 138.984C64.5303 138.984 73.3503 135 80.3935 128.203C71.3833 127.969 63.8325 120.703 61.2309 110.703C62.5 110.937 63.769 111.094 65.1016 111.094C66.9417 111.094 68.7819 110.781 70.495 110.234C61.1041 107.89 54.0608 97.7343 54.0608 85.4687V85.1563C56.7891 87.0313 59.962 88.2032 63.3247 88.3593C57.8043 83.8279 54.1877 76.0936 54.1877 67.3436C54.1877 62.6562 55.2028 58.3593 56.9795 54.6093C67.0684 69.9217 82.2335 79.9216 99.2385 81.0155C98.9213 79.1405 98.7309 77.1876 98.7309 75.2344C98.7309 61.328 107.868 50 119.226 50C125.127 50 130.457 53.0469 134.201 57.9687C138.832 56.875 143.274 54.7656 147.208 51.875C145.685 57.7345 142.449 62.6564 138.198 65.7812C142.322 65.2346 146.32 63.828 150 61.8751C147.209 66.8749 143.719 71.3278 139.721 74.9218V74.9218Z" fill="white"/>
</svg>
