<?xml version="1.0" encoding="iso-8859-1"?>
<!-- Generator: Adobe Illustrator 27.4.1, SVG Export Plug-In . SVG Version: 6.00 Build 0)  -->
<svg version="1.1" baseProfile="basic" id="Layer_1"
	 xmlns="http://www.w3.org/2000/svg" xmlns:xlink="http://www.w3.org/1999/xlink" x="0px" y="0px" viewBox="0 0 48 48"
	 xml:space="preserve">
<path d="M39,44H9c-1.657,0-3-1.343-3-3v-7h36v7C42,42.657,40.657,44,39,44z"/>
<path style="fill:#FFFFFF;" d="M39,41H9c-1.105,0-2-0.895-2-2V7h34v32C41,40.105,40.105,41,39,41z"/>
<path d="M39,42H9c-1.654,0-3-1.346-3-3V7c0-0.553,0.447-1,1-1h34c0.553,0,1,0.447,1,1v32C42,40.654,40.654,42,39,42z M8,8v31
	c0,0.552,0.448,1,1,1h30c0.552,0,1-0.448,1-1V8H8z"/>
<path d="M29.298,12.101h-3.414c0,0-0.036,16.574-0.036,16.655c0,2.041-1.804,3.652-3.845,3.652c-2.046,0-3.702-1.656-3.702-3.702
	c0-2.041,1.656-3.697,3.702-3.697c0.153,0,0.301,0.027,0.449,0.045v-3.571c-0.148-0.009-0.296-0.022-0.449-0.022
	c-4.002,0-7.25,3.244-7.25,7.246s3.248,7.25,7.25,7.25s7.246-3.244,7.246-7.25c0-0.085,0-5.258,0-9.803
	c1.14,1.732,3.1,2.88,5.33,2.88c0.197,0,0.39-0.013,0.588-0.031v-3.971C32.084,17.562,29.621,15.152,29.298,12.101z"/>
</svg>